<svg width="164" height="164" viewBox="0 0 164 164" fill="none" xmlns="http://www.w3.org/2000/svg">
<path d="M81.5837 108.73C74.0432 108.73 67.6337 106.09 62.3554 100.812C57.077 95.5336 54.4378 89.1241 54.4378 81.5836C54.4378 74.0431 57.077 67.6336 62.3554 62.3553C67.6337 57.0769 74.0432 54.4377 81.5837 54.4377C89.1242 54.4377 95.5337 57.0769 100.812 62.3553C106.09 67.6336 108.73 74.0431 108.73 81.5836C108.73 89.1241 106.09 95.5336 100.812 100.812C95.5337 106.09 89.1242 108.73 81.5837 108.73ZM81.5837 90.6322C84.1475 90.6322 86.2965 89.7651 88.0309 88.0308C89.7652 86.2964 90.6323 84.1474 90.6323 81.5836C90.6323 79.0198 89.7652 76.8708 88.0309 75.1365C86.2965 73.4021 84.1475 72.535 81.5837 72.535C79.0199 72.535 76.8709 73.4021 75.1366 75.1365C73.4022 76.8708 72.5351 79.0198 72.5351 81.5836C72.5351 84.1474 73.4022 86.2964 75.1366 88.0308C76.8709 89.7651 79.0199 90.6322 81.5837 90.6322ZM18.2433 163.021C13.2665 163.021 9.00612 161.249 5.46207 157.705C1.91802 154.161 0.145996 149.901 0.145996 144.924V108.73H18.2433V144.924H54.4378V163.021H18.2433ZM108.73 163.021V144.924H144.924V108.73H163.021V144.924C163.021 149.901 161.249 154.161 157.705 157.705C154.161 161.249 149.901 163.021 144.924 163.021H108.73ZM0.145996 54.4377V18.2432C0.145996 13.2664 1.91802 9.00603 5.46207 5.46198C9.00612 1.91793 13.2665 0.145905 18.2433 0.145905H54.4378V18.2432H18.2433V54.4377H0.145996ZM144.924 54.4377V18.2432H108.73V0.145905H144.924C149.901 0.145905 154.161 1.91793 157.705 5.46198C161.249 9.00603 163.021 13.2664 163.021 18.2432V54.4377H144.924Z" fill="white"/>
</svg>
